<svg width="2908" height="1440" viewBox="0 0 2908 1440" fill="none" xmlns="http://www.w3.org/2000/svg">
<g clip-path="url(#clip0_1073_167)">
<rect width="1440" height="2908" transform="matrix(0 -1 1 0 0 1440)" fill="white"/>
<path d="M-57.5 860.639C-52.5496 867.289 72.3532 922.593 120.757 926.818C151.656 929.515 210.463 950.895 284.043 985.022C327.538 1005.2 332.572 1040.9 349.198 1065.08C357.539 1077.21 377.475 1085.95 412.327 1095.11C462.525 1108.28 555.338 1106.01 650.319 1104.36C700.252 1103.49 725.8 1081.1 759.177 1051.13C790.065 1023.39 795.905 989.498 803.455 939.569C815.442 860.302 787.704 819.486 771.903 753.956C742.066 630.217 729.3 536.065 727.65 509.514C721.74 414.424 725.9 334.451 739.226 305.224C758.263 263.471 809.106 264.346 915.538 248.495C960.196 241.844 987.568 247.595 1006.67 254.22C1032.6 263.215 1075.67 303.999 1125.65 353.102C1155.31 382.245 1159.28 425.708 1166.78 501.163C1171.8 551.682 1169.33 627.772 1172.63 683.376C1180.51 816.06 1222.53 844.187 1259.14 885.765C1300.91 933.21 1372.25 989.048 1449.63 1036.5C1544.62 1094.75 1625.66 1086 1667.59 1072.73C1695.35 1063.94 1763.87 1011.4 1801.8 975.247C1829.14 949.191 1855.88 902.992 1872.68 798.084C1886.97 708.865 1869.38 654.674 1882.63 620.221C1897.58 581.359 1983.89 590.969 2029.29 596.77C2061.49 600.883 2087.6 632.572 2131.72 663.349C2162.81 685.028 2187.6 689.276 2240.01 686.851C2274.66 685.248 2312.51 649.474 2361.54 617.046C2413.37 582.768 2464.22 561.067 2496.7 545.241C2513.95 536.837 2565.63 535.965 2636.46 539.266C2664.51 540.573 2667.74 560.917 2729.67 625.347C2788.3 684.826 2902.15 798.684 2963.28 860.639C3024.41 922.593 3029.36 929.193 3039.46 940.994" stroke="#515F08" stroke-width="2" stroke-linecap="round"/>
<path d="M-121.85 1107.88C-117.693 1107.88 -84.3748 1114.11 1.31356 1123.56C218.958 1147.56 257.938 1120.47 301.018 1103.75C349.049 1085.11 400.657 1059.76 430.196 1027.2C477.373 975.191 482.787 927.495 489.054 868.763C491.117 849.427 495.383 760.212 497.462 631.128C498.63 558.562 528.89 522.262 541.518 497.037C556.213 467.685 583.434 454.996 612.815 440.321C664.748 414.383 732.325 423.505 798.457 423.442C891.141 423.354 923.541 454.87 955.033 472.726C993.579 494.582 1049.26 553.25 1082.1 591.323C1107.83 621.147 1137.68 654.274 1160.8 684.695C1200.5 736.941 1219.56 767.644 1267.74 826.281C1333.85 906.727 1389.62 923.086 1437.83 926.266C1540.12 933.015 1691.93 927.369 1720.28 905.388C1765.25 870.508 1823.95 795.608 1851.56 741.663C1876.78 692.408 1897.76 637.773 1916.63 594.724C1929.88 564.479 2000.17 524.53 2055.12 497.006C2089.59 479.742 2159.77 465.452 2211.48 473.797C2293.14 486.975 2328.06 519.995 2360.59 540.937C2398.12 565.093 2426.69 591.292 2474.97 626.971C2506.49 650.268 2535.91 662.714 2583.05 680.57C2645.88 704.37 2680.77 708.944 2708.07 717.352C2774.29 737.744 2865.56 721.603 2879.19 715.336C2894.97 696.41 2913.87 690.112 2926.43 685.923C2932.76 683.813 2939 681.735 2951.72 673.295" stroke="#515F08" stroke-width="2" stroke-linecap="round"/>
<path d="M-104.75 1066C-68.3969 1075.95 57.962 1086 130.067 1077.73C186.186 1071.29 200.172 1006.2 215.198 954.57C228.264 909.677 250.226 877.74 264.327 856.988C284.906 826.703 323.381 789.533 364.159 755.381C416.385 711.64 514.894 725.979 565.948 735.079C636.156 747.594 658.505 802.484 684.382 847.487C722.944 914.553 793.514 1005.9 826.017 1025.1C862.424 1046.61 911.723 1054.3 975.027 1064.3C1080.64 1080.99 1138.44 1029.5 1166.92 1005.25C1199.69 977.337 1221.94 942.794 1280.9 868.814C1343.56 790.185 1405.16 764.482 1463.46 735.254C1492.43 720.734 1543.32 701.077 1615.67 686.076C1724.57 663.498 1766.98 702.627 1828.14 748.03C1884.29 789.717 1985 877.59 2042.65 924.268C2108.73 977.769 2138.56 984.297 2183.39 989.297C2286.39 1000.79 2310.32 977.697 2351.93 947.795C2398.87 914.056 2433.63 814.785 2450.38 735.404C2456.23 707.696 2467.03 682.776 2490.23 645.448C2560.23 532.84 2608.64 517.664 2665.22 501.863C2687.36 495.68 2723.5 486.012 2803.13 479.336C2854.56 475.025 2928.97 479.261 2976.29 482.586C3023.62 485.912 3041.77 490.862 3053.6 494.237C3065.43 497.613 3070.38 499.263 3075.48 500.963" stroke="#515F08" stroke-width="20" stroke-linecap="round"/>
<path d="M-89.7485 620.971C-53.446 624.272 41.1608 629.272 160.294 635.097C211.88 637.62 240.075 647.573 296.479 675.725C391.762 723.282 458.44 779.233 492.543 794.209C548.929 818.97 611.701 814.285 714.084 810.185C768.328 808.012 790.214 784.383 849.193 742.005C891.109 711.887 931.874 697.727 973.302 672.025C1049.14 624.975 1116.84 596.02 1145.96 586.044C1182.87 573.405 1231.65 561.067 1352.4 556.792C1415.66 554.552 1481.56 603.97 1524.44 644.198C1549 667.236 1593.37 738.78 1636.92 834.011C1659.82 884.07 1675.28 935.694 1689.5 970.896C1701.68 1001.02 1725.28 1030.9 1748.61 1062.53C1766.02 1086.14 1821.64 1125.71 1889.09 1172.36C1947.03 1212.43 2011.8 1227.61 2073.51 1244.29C2127.57 1258.9 2221.42 1261.02 2278.64 1256.04C2305.49 1253.71 2330.32 1232.71 2350.35 1220.24C2379.86 1201.86 2413.53 1147.91 2455.26 1098.71C2503.12 1042.27 2536.94 1036.1 2576.92 1022.72C2643.51 1000.44 2676.95 997.698 2748.5 994.348C2775.68 993.075 2792.06 981.047 2804.53 970.246C2830.64 947.647 2838.76 912.792 2869.49 858.713C2895.52 812.888 2946.77 779.583 2984.54 760.181C2990.42 757.681 2995.37 754.381 3001.22 752.681C3007.07 750.981 3013.67 750.981 3020.47 750.981" stroke="#515F08" stroke-width="20" stroke-linecap="round"/>
<path d="M-89.7485 745.98C-44.8453 744.33 47.8612 721.178 130.892 682.776C154.225 671.984 171.82 649.423 200.047 615.421C243.032 563.641 289.978 492.962 344.057 435.533C383.745 393.387 421.788 372.704 473.191 359.378C558.34 337.304 626.852 352.602 655.079 362.528C751.024 396.266 818.416 462.46 855.194 476.761C892.768 491.372 940.125 499.263 1073.13 497.663C1139.52 496.864 1160.24 469.361 1189.39 460.16C1224.64 449.034 1268.55 454.26 1308.53 470.886C1327.79 478.898 1345.25 495.862 1389.13 568.618C1426.03 629.802 1480.86 746.98 1513.92 810.61C1551.76 883.46 1590.07 917.392 1645.8 963.171C1689.58 999.137 1745.08 1015.9 1805.76 1030.9C1910.45 1056.78 1953.6 1006.1 1976.97 994.373C2029.68 967.935 2100.21 916.092 2137.76 890.265C2184.91 857.835 2230.22 834.486 2315.07 790.308C2351.36 771.418 2403.43 769.332 2460.03 770.132C2536.65 771.215 2619.94 860.688 2671.12 892.566C2728.84 928.518 2800.06 925.993 2840.36 911.067C2855.95 905.293 2908.31 848.137 2989.9 769.857C3023.62 739.43 3041.77 727.879 3053.6 720.278C3065.43 712.678 3070.38 709.378 3085.48 700.977" stroke="#7F970D" stroke-width="20" stroke-linecap="round"/>
<path d="M-84.748 1201.01C-71.5471 1201.01 -48.2455 1204.31 -1.79215 1209.31C70.6643 1217.11 161.469 1197.81 243.025 1171.21C334.986 1141.21 369.984 1096.3 424.263 1017.17C456.832 969.693 463.591 931.043 479.317 890.54C518.066 790.74 538.596 704.477 551.022 665.449C568.003 612.113 595.25 572.768 618.427 531.315C660.749 455.619 715.159 407.706 744.261 392.73C770.786 379.08 831.517 375.954 915.548 378.429C981.816 380.381 1041.68 394.255 1108.16 399.255C1181.06 404.738 1243.45 396.005 1295.78 380.254C1362.3 360.231 1413.51 324.4 1443.49 304.424C1482.68 278.303 1576.57 295.848 1677.55 327.5C1719.03 340.5 1766.78 375.754 1860.04 455.659C1903.89 493.227 1950.1 509.163 2020.03 523.439C2050.93 529.748 2102.71 522.664 2152.99 510.263C2254.31 485.273 2305.37 447.659 2317 441.008C2331.18 432.894 2366.83 416.106 2427.46 384.529C2562.62 314.13 2615.34 292.648 2648.65 280.997C2684.96 268.292 2735.25 259.345 2775.28 251.795C2843.61 255.895 2885.41 267.596 2895.39 270.921C2900.41 272.596 2905.36 274.246 2920.47 275.947" stroke="#7F970D" stroke-width="20" stroke-linecap="round"/>
<path d="M-69.7471 400.956C-40.045 424.057 3.30812 467.31 52.4116 519.764C83.9845 553.491 131.617 597.27 184.071 659.699C217.126 699.04 259.926 753.931 315.73 813.085C350.274 849.702 378.485 857.588 405.162 865.964C453.133 881.025 491.793 874.289 554.222 875.164C598.187 875.781 636.803 821.286 665.205 781.108C677.496 763.721 691.907 751.031 710.983 740.23C739.753 723.941 780.113 720.979 815.891 722.629C843.83 723.917 865.219 739.23 884.346 757.506C904.42 776.689 933.424 835.537 973.377 910.467C998.101 956.835 1015.28 984.197 1035.98 1023.17C1071.82 1090.66 1113.59 1132.61 1144.24 1150.86C1239.93 1207.84 1281.75 1204.31 1372.53 1204.36C1408.88 1204.38 1433.56 1176.11 1496.64 1109.81C1533.21 1071.37 1584.27 995.798 1642.85 922.918C1701.43 850.038 1762.48 779.083 1795.59 740.055C1851.49 674.138 1895.29 627.772 1956.82 578.643C1973.62 565.234 1996.9 565.968 2027.68 568.443C2054.46 570.597 2118.21 604.07 2202.34 639.073C2257.68 662.097 2300.22 660.974 2336.12 654.349C2375.76 647.034 2405.23 616.071 2464.38 563.692C2503.52 529.04 2508.64 466.36 2546.09 413.632C2592.4 348.425 2666.75 342.752 2721.03 331.801C2780.17 319.869 2848.51 339.201 2906.69 354.177C2968.17 365.853 3012.02 372.604 3032 375.929C3040.42 377.604 3045.37 379.254 3050.47 380.954" stroke="#7F970D" stroke-width="9" stroke-linecap="round"/>
<path d="M0.257813 1056C56.3618 1019.7 93.5144 987.797 108.491 961.195C122.742 935.88 140.118 864.889 165.92 753.481C190.631 646.782 196.872 576.118 211.823 550.316C236.889 507.058 323.181 515.964 376.76 528.365C420.137 538.405 451.79 603.97 494.943 717.503C525.081 796.795 557.897 925.093 583.199 1002.1C616.68 1104 651.804 1142.51 682.581 1169.99C705.216 1190.19 731.86 1194.31 760.912 1200.96C801.018 1210.14 869.87 1211.01 944.8 1208.54C1044.37 1205.25 1101.94 1097.76 1130.91 1055.55C1153.93 1022.03 1191.24 962.196 1228.12 911.792C1265 861.388 1299.65 821.786 1331.53 789.833C1389 732.222 1435.21 701.077 1466.79 681.951C1500.15 661.74 1541.82 655.974 1583.4 661.749C1604.13 664.63 1621.67 679.075 1654.95 708.127C1688.23 737.18 1736.08 783.383 1790.43 842.662C1844.79 901.941 1904.19 972.896 1940.57 1014.4C2002.55 1085.11 2033.6 1097.61 2081.83 1105.16C2124.4 1111.82 2161.96 1102.71 2184.41 1094.4C2226.39 1078.89 2246.92 1031.2 2277.82 960.42C2286.38 940.804 2316.82 874.939 2381.58 736.229C2418.21 657.75 2469.43 566.167 2499.06 512.789C2551.7 417.95 2608.64 394.355 2652.75 382.654C2703.66 369.146 2748.45 407.456 2830.98 469.861C2869.5 498.98 2893.66 544.066 2934.29 645.073C2961.72 722.979 3002.97 854.988 3025.87 945.269C3048.77 1035.55 3052.07 1080.1 3060.48 1126.01" stroke="#7F970D" stroke-width="4" stroke-linecap="round"/>
</g>
<defs>
<clipPath id="clip0_1073_167">
<rect width="1440" height="2908" fill="white" transform="matrix(0 -1 1 0 0 1440)"/>
</clipPath>
</defs>
</svg>
