<svg width="1440" height="2908" viewBox="0 0 1440 2908" fill="none" xmlns="http://www.w3.org/2000/svg">
<g clip-path="url(#clip0_956_618)">
<rect width="1440" height="2908" fill="white"/>
<path d="M579.362 -57.5C572.711 -52.5496 517.407 72.3532 513.182 120.757C510.485 151.656 489.105 210.463 454.978 284.043C434.805 327.538 399.099 332.572 374.922 349.198C362.792 357.539 354.046 377.475 344.895 412.327C331.716 462.525 333.994 555.338 335.644 650.319C336.512 700.252 358.896 725.8 388.873 759.177C416.614 790.065 450.503 795.905 500.431 803.455C579.698 815.442 620.515 787.704 686.044 771.903C809.783 742.066 903.935 729.3 930.487 727.65C1025.58 721.74 1105.55 725.9 1134.78 739.226C1176.53 758.263 1175.65 809.106 1191.51 915.538C1198.16 960.196 1192.41 987.568 1185.78 1006.67C1176.78 1032.6 1136 1075.67 1086.9 1125.65C1057.76 1155.31 1014.29 1159.28 938.837 1166.78C888.319 1171.8 812.228 1169.33 756.624 1172.63C623.94 1180.51 595.813 1222.53 554.235 1259.14C506.79 1300.91 450.953 1372.25 403.499 1449.63C345.246 1544.62 353.996 1625.66 367.272 1667.59C376.062 1695.35 428.601 1763.87 464.754 1801.8C490.809 1829.14 537.009 1855.88 641.916 1872.68C731.136 1886.97 785.326 1869.38 819.779 1882.63C858.642 1897.58 849.031 1983.89 843.23 2029.29C839.117 2061.49 807.428 2087.6 776.651 2131.72C754.972 2162.81 750.724 2187.6 753.149 2240.01C754.753 2274.66 790.527 2312.51 822.954 2361.54C857.232 2413.37 878.933 2464.22 894.759 2496.7C903.163 2513.95 904.035 2565.63 900.735 2636.46C899.428 2664.51 879.083 2667.74 814.653 2729.67C755.174 2788.3 641.316 2902.15 579.362 2963.28C517.407 3024.41 510.807 3029.36 499.006 3039.46" stroke="#515F08" stroke-width="2" stroke-linecap="round"/>
<path d="M332.122 -121.849C332.122 -117.692 325.887 -84.3745 316.439 1.3138C292.443 218.958 319.526 257.938 336.248 301.018C354.891 349.049 380.241 400.657 412.803 430.196C464.808 477.373 512.505 482.787 571.237 489.054C590.573 491.117 679.788 495.384 808.872 497.462C881.438 498.63 917.738 528.891 942.962 541.519C972.315 556.213 985.003 583.434 999.679 612.815C1025.62 664.748 1016.5 732.325 1016.56 798.458C1016.65 891.141 985.129 923.542 967.274 955.033C945.418 993.579 886.75 1049.26 848.677 1082.1C818.853 1107.83 785.725 1137.68 755.305 1160.8C703.058 1200.5 672.356 1219.56 613.719 1267.74C533.273 1333.85 516.914 1389.62 513.734 1437.83C506.985 1540.12 512.631 1691.93 534.612 1720.28C569.492 1765.25 644.392 1823.95 698.337 1851.56C747.592 1876.78 802.227 1897.76 845.276 1916.63C875.521 1929.88 915.47 2000.17 942.994 2055.12C960.257 2089.59 974.548 2159.77 966.203 2211.48C953.025 2293.14 920.005 2328.06 899.063 2360.59C874.907 2398.12 848.708 2426.69 813.029 2474.97C789.732 2506.49 777.286 2535.91 759.43 2583.05C735.63 2645.88 731.056 2680.77 722.648 2708.07C702.255 2774.29 718.397 2865.56 724.663 2879.19C743.59 2894.97 749.888 2913.87 754.076 2926.43C756.186 2932.76 758.265 2939 766.705 2951.72" stroke="#515F08" stroke-width="2" stroke-linecap="round"/>
<path d="M373.997 -104.75C364.046 -68.3969 353.996 57.962 362.271 130.067C368.712 186.186 433.801 200.172 485.43 215.198C530.323 228.264 562.261 250.226 583.012 264.327C613.297 284.906 650.467 323.381 684.619 364.159C728.36 416.385 714.021 514.894 704.921 565.948C692.406 636.156 637.516 658.505 592.513 684.382C525.447 722.944 434.101 793.514 414.9 826.017C393.392 862.424 385.698 911.723 375.697 975.027C359.013 1080.64 410.5 1138.44 434.751 1166.92C462.664 1199.69 497.206 1221.94 571.186 1280.9C649.815 1343.56 675.519 1405.16 704.746 1463.46C719.266 1492.43 738.923 1543.32 753.924 1615.67C776.502 1724.57 737.373 1766.98 691.97 1828.14C650.283 1884.29 562.411 1985 515.732 2042.65C462.231 2108.73 455.703 2138.56 450.703 2183.39C439.213 2286.39 462.303 2310.32 492.206 2351.93C525.944 2398.87 625.215 2433.63 704.596 2450.38C732.304 2456.23 757.224 2467.03 794.552 2490.23C907.16 2560.23 922.336 2608.64 938.137 2665.22C944.32 2687.36 953.988 2723.5 960.664 2803.13C964.975 2854.56 960.739 2928.97 957.414 2976.29C954.088 3023.62 949.138 3041.77 945.763 3053.6C942.388 3065.43 940.737 3070.38 939.037 3075.48" stroke="#515F08" stroke-width="20" stroke-linecap="round"/>
<path d="M819.029 -89.7485C815.729 -53.446 810.728 41.1608 804.903 160.294C802.38 211.88 792.427 240.075 764.275 296.479C716.718 391.762 660.768 458.44 645.791 492.543C621.03 548.929 625.715 611.701 629.815 714.084C631.988 768.328 655.617 790.214 697.995 849.193C728.113 891.109 742.273 931.874 767.975 973.302C815.025 1049.14 843.981 1116.84 853.956 1145.96C866.596 1182.87 878.933 1231.65 883.208 1352.4C885.448 1415.66 836.03 1481.56 795.802 1524.44C772.764 1549 701.22 1593.37 605.989 1636.92C555.93 1659.82 504.306 1675.28 469.104 1689.5C438.978 1701.68 409.1 1725.28 377.472 1748.61C353.863 1766.02 314.293 1821.64 267.64 1889.09C227.57 1947.03 212.386 2011.8 195.71 2073.51C181.097 2127.57 178.983 2221.42 183.959 2278.64C186.292 2305.49 207.285 2330.32 219.761 2350.35C238.143 2379.86 292.091 2413.53 341.295 2455.26C397.727 2503.12 403.899 2536.94 417.275 2576.92C439.557 2643.51 442.302 2676.95 445.652 2748.5C446.925 2775.68 458.953 2792.06 469.754 2804.53C492.353 2830.64 527.208 2838.76 581.287 2869.49C627.112 2895.52 660.417 2946.77 679.819 2984.54C682.319 2990.42 685.619 2995.37 687.319 3001.22C689.02 3007.07 689.02 3013.67 689.02 3020.47" stroke="#515F08" stroke-width="20" stroke-linecap="round"/>
<path d="M694.02 -89.7485C695.67 -44.8453 718.822 47.8612 757.224 130.892C768.016 154.225 790.577 171.82 824.579 200.047C876.359 243.032 947.038 289.978 1004.47 344.057C1046.61 383.745 1067.3 421.788 1080.62 473.191C1102.7 558.34 1087.4 626.852 1077.47 655.079C1043.73 751.024 977.54 818.416 963.239 855.194C948.628 892.768 940.737 940.125 942.338 1073.13C943.136 1139.52 970.64 1160.24 979.84 1189.39C990.966 1224.64 985.741 1268.55 969.114 1308.53C961.102 1327.79 944.138 1345.25 871.383 1389.13C810.198 1426.03 693.02 1480.86 629.39 1513.92C556.541 1551.76 522.608 1590.07 476.829 1645.8C440.863 1689.58 424.101 1745.08 409.1 1805.76C383.218 1910.45 433.901 1953.6 445.627 1976.97C472.065 2029.68 523.908 2100.21 549.735 2137.76C582.165 2184.91 605.514 2230.22 649.692 2315.07C668.582 2351.36 670.668 2403.43 669.868 2460.03C668.785 2536.65 579.312 2619.94 547.434 2671.12C511.482 2728.84 514.007 2800.06 528.933 2840.36C534.707 2855.95 591.863 2908.31 670.143 2989.9C700.57 3023.62 712.121 3041.77 719.722 3053.6C727.322 3065.43 730.623 3070.38 739.023 3085.48" stroke="#7F970D" stroke-width="20" stroke-linecap="round"/>
<path d="M238.988 -84.7483C238.988 -71.5474 235.687 -48.2457 230.687 -1.7924C222.888 70.664 242.188 161.469 268.79 243.025C298.786 334.986 343.695 369.984 422.826 424.263C470.306 456.832 508.957 463.591 549.46 479.317C649.26 518.066 735.523 538.596 774.551 551.022C827.886 568.003 867.232 595.25 908.685 618.427C984.381 660.749 1032.29 715.159 1047.27 744.261C1060.92 770.786 1064.05 831.517 1061.57 915.548C1059.62 981.816 1045.74 1041.68 1040.74 1108.16C1035.26 1181.06 1043.99 1243.45 1059.75 1295.77C1079.77 1362.3 1115.6 1413.51 1135.58 1443.49C1161.7 1482.68 1144.15 1576.57 1112.5 1677.55C1099.5 1719.03 1064.25 1766.78 984.34 1860.04C946.773 1903.88 930.837 1950.1 916.561 2020.03C910.252 2050.93 917.336 2102.71 929.737 2152.99C954.727 2254.31 992.341 2305.37 998.992 2317C1007.11 2331.18 1023.89 2366.83 1055.47 2427.46C1125.87 2562.62 1147.35 2615.34 1159 2648.65C1171.71 2684.96 1180.65 2735.25 1188.2 2775.28C1184.1 2843.61 1172.4 2885.41 1169.08 2895.39C1167.4 2900.41 1165.75 2905.36 1164.05 2920.47" stroke="#7F970D" stroke-width="20" stroke-linecap="round"/>
<path d="M1039.04 -69.7471C1015.94 -40.045 972.69 3.30812 920.236 52.4116C886.509 83.9845 842.73 131.617 780.301 184.071C740.96 217.126 686.069 259.926 626.915 315.73C590.298 350.274 582.412 378.485 574.036 405.162C558.975 453.133 565.711 491.793 564.836 554.222C564.219 598.187 618.715 636.803 658.892 665.205C676.279 677.496 688.97 691.907 699.77 710.983C716.059 739.753 719.022 780.113 717.372 815.891C716.083 843.83 700.77 865.219 682.494 884.346C663.312 904.42 604.464 933.424 529.533 973.377C483.165 998.101 455.803 1015.28 416.825 1035.98C349.343 1071.82 307.392 1113.59 289.141 1144.24C232.164 1239.93 235.687 1281.75 235.637 1372.53C235.617 1408.88 263.889 1433.56 330.194 1496.64C368.634 1533.21 444.202 1584.27 517.082 1642.85C589.963 1701.43 660.918 1762.48 699.945 1795.59C765.862 1851.49 812.228 1895.29 861.357 1956.82C874.766 1973.62 874.033 1996.9 871.557 2027.68C869.403 2054.46 835.93 2118.21 800.927 2202.34C777.903 2257.68 779.026 2300.22 785.651 2336.12C792.967 2375.76 823.929 2405.23 876.308 2464.38C910.961 2503.52 973.64 2508.64 1026.37 2546.09C1091.58 2592.4 1097.25 2666.75 1108.2 2721.03C1120.13 2780.17 1100.8 2848.51 1085.82 2906.69C1074.15 2968.17 1067.4 3012.02 1064.07 3032C1062.4 3040.42 1060.75 3045.37 1059.05 3050.47" stroke="#7F970D" stroke-width="9" stroke-linecap="round"/>
<path d="M383.998 0.257812C420.3 56.3618 452.203 93.5144 478.805 108.491C504.12 122.742 575.111 140.118 686.519 165.92C793.218 190.631 863.882 196.872 889.684 211.823C932.942 236.889 924.036 323.181 911.635 376.76C901.596 420.137 836.03 451.79 722.497 494.943C643.205 525.081 514.907 557.897 437.902 583.199C336.005 616.68 297.492 651.804 270.015 682.581C249.807 705.216 245.688 731.86 239.038 760.912C229.857 801.018 228.987 869.87 231.462 944.8C234.751 1044.37 342.245 1101.94 384.448 1130.91C417.97 1153.93 477.805 1191.24 528.208 1228.12C578.612 1265 618.215 1299.65 650.167 1331.53C707.778 1389 738.923 1435.21 758.049 1466.79C778.26 1500.15 784.026 1541.82 778.251 1583.4C775.37 1604.13 760.925 1621.67 731.873 1654.95C702.821 1688.23 656.617 1736.08 597.338 1790.43C538.059 1844.79 467.104 1904.19 425.601 1940.57C354.886 2002.55 342.395 2033.6 334.844 2081.83C328.18 2124.4 337.295 2161.96 345.595 2184.41C361.114 2226.39 408.8 2246.92 479.58 2277.82C499.196 2286.38 565.061 2316.82 703.771 2381.58C782.25 2418.21 873.833 2469.43 927.211 2499.06C1022.05 2551.7 1045.64 2608.64 1057.35 2652.75C1070.85 2703.66 1032.54 2748.45 970.139 2830.98C941.02 2869.5 895.934 2893.66 794.927 2934.29C717.021 2961.72 585.012 3002.97 494.731 3025.87C404.449 3048.77 359.896 3052.07 313.993 3060.48" stroke="#7F970D" stroke-width="4" stroke-linecap="round"/>
</g>
<defs>
<clipPath id="clip0_956_618">
<rect width="1440" height="2908" fill="white"/>
</clipPath>
</defs>
</svg>
