<svg width="1202" height="898" viewBox="0 0 1202 898" fill="none" xmlns="http://www.w3.org/2000/svg">
<path d="M84.4558 140.572C84.4558 183.723 90.5925 254.03 101.456 285.139C103.834 291.95 110.18 296.5 116.394 299.135C122.609 301.77 129.768 301.77 135.502 300.235C156.428 294.635 174.212 263.702 194.931 230.083C212.955 200.838 222.81 171.757 270.648 130.931C290.829 113.708 329.613 101.636 360.327 93.2043C414.234 78.4055 447.015 86.8183 456.824 91.4528C470.459 97.8947 474.909 145.408 486.81 188.482C497.148 225.895 501.811 246.901 511.605 269.143C513.769 274.057 516.254 276.908 519.353 279.001C534.516 289.238 553.446 286.27 561.179 285.247C568.493 284.279 582.301 263.702 603.949 229.696C643.752 167.173 649.525 134.434 659.861 111.727C667.532 94.8762 682.564 74.5425 733.548 47.6658C753.404 37.1985 773.436 38.2729 793.535 41.8534C815.088 45.6927 827.209 65.0876 836.492 76.418C862.739 108.455 860.279 165.247 869.066 210.646C877.689 255.203 910.736 289.184 937.716 307.412C959.049 321.825 983.137 318.262 1011.06 318.324C1052.01 318.415 1074.13 234.687 1083.43 221.729C1098.72 200.42 1142.29 208.771 1155.18 210.817C1166.62 212.632 1172.29 226.286 1177.45 236.082C1181.79 244.318 1180.59 257.254 1177.51 272.212C1171.34 302.142 1137.3 333.638 1114.56 365.18C1078.53 415.176 1067 451.498 1060.25 469.106C1052 490.591 1046.3 515.606 1045.76 535.74C1045.19 556.946 1068.93 584.797 1090.11 606.016C1113.31 611.766 1140.27 614.835 1143.88 621.02C1145.45 624.135 1146.47 627.204 1147.52 633.466" stroke="#515F08" stroke-width="2" stroke-linecap="round"/>
<path d="M68.9593 534.267C71.0358 598.963 71.0048 683.034 76.6611 689.73C98.6998 715.82 156.546 739.733 190.22 755.372C211.177 765.105 232.139 750.273 244.49 736.912C252.472 728.277 260.932 713.321 274.879 684.972C309.038 615.539 330.294 565.329 339.05 555.006C346.551 546.163 366.371 546.667 390.08 548.713C412.514 550.649 432.51 572.366 449.541 600.188C476.4 644.066 466.665 670.542 469.284 689.715C473.014 717.025 485.199 764.471 501.253 785.829C523.038 814.811 577.094 816.364 602.896 813.295C620.86 811.158 644.194 765.029 677.233 712.872C689.617 693.322 693.907 688.335 702.152 683.654C721.557 672.637 761.907 671.689 806.8 674.262C834.495 675.849 848.905 682.012 858.187 686.134C882.889 697.106 896.417 752.133 900.602 776.498C906.261 809.453 938.692 853.378 973.839 878.301C983.494 885.148 994.573 879.417 1003.86 875.294C1018.05 868.989 1032.73 843.396 1042.64 819.03C1052.52 794.759 1053.49 773.026 1059.69 735.92C1064.15 709.24 1067.93 688.335 1070.55 665.582C1072.75 646.509 1083.43 620.198 1079.4 596.855C1070.88 547.511 976.256 574.567 941.032 581.743C887.994 592.549 877.945 648.904 862.464 678.261C835.683 729.045 828.356 748.103 816.47 765.137C796.804 793.322 769.531 803.902 691.722 825.586C664.752 833.103 646.55 831.864 631.084 830.841C617.348 829.932 608.273 823.618 600.044 814.892C572.578 785.764 568.013 756.597 559.195 735.827C549.005 711.824 519.477 686.227 490.096 677.92C437.894 663.159 382.239 691.249 353.663 705.742C324.004 720.784 294.404 767.571 265.333 791.502C247.721 806 227.149 814.256 197.209 818.937C146.1 826.928 120.718 812.272 106.198 800.399C90.9772 787.954 86.5635 769.927 78.7996 745.685C74.788 733.159 75.1579 712.143 76.6921 687.374C78.5988 656.591 108.135 642.828 121.601 624.755C135.225 606.471 144.335 576.799 149.015 541.134C155.275 493.423 141.298 466.13 126.359 441.888C111.585 417.914 102.122 378.463 88.1441 347.37C73.6912 315.221 54.5164 295.601 51.4171 287.882C49.6406 283.457 50.3633 277.094 51.8975 271.886C54.8297 261.932 70.9119 250.186 92.0493 236.252C108.837 225.185 146.164 224.271 190.05 224.782C210.469 225.02 232.015 227.371 260.405 225.836C290.39 224.215 306.492 180.995 331.798 128.885C342.483 106.88 351.99 94.134 377.745 73.9998C389.961 64.4503 410.784 58.9804 444.737 52.269C492.228 42.8817 535.78 58.8254 561.566 80.9902C583.454 99.8041 603.965 138.247 628.217 180.577C642.264 205.094 654.67 216.986 668.059 226.27C682.069 235.985 714.425 236.67 755.166 235.136C810.271 233.06 848.75 218.133 892.636 195.999C947.095 168.533 981.122 133.38 998.618 124.622C1038.03 104.895 1062.67 105.48 1130.74 105.402C1165.41 105.363 1160.91 167.169 1162.51 210.693C1163.16 228.294 1151.74 250.992 1125.54 292.64C1108.1 320.347 1079.9 359.863 1062.6 386.554C1025.78 443.392 1026.65 475.244 1024.08 504.709C1023.04 516.564 1027.64 528.005 1037.42 539.351C1064.26 570.49 1143.06 562.167 1169.17 566.274C1172.86 566.855 1175.36 571.405 1176.94 578.101C1187.76 623.963 1149.69 684.925 1135.17 702.657C1120.72 716.111 1105.22 721.288 1095.94 723.861C1091.77 725.411 1088.7 727.457 1082.44 729.565" stroke="#515F08" stroke-width="2" stroke-linecap="round"/>
<path d="M3.87329 475.368C10.01 475.368 27.4902 475.368 50.7196 472.81C59.9341 471.796 62.6985 465.138 64.2792 453.296C71.7401 397.401 58.6694 374.185 51.9438 356.097C42.8267 331.576 35.9203 314.294 35.3779 261.672C35.2591 250.145 36.9121 245.04 38.9732 240.871C41.0342 236.701 44.1025 233.633 53.354 234.097C100.323 236.458 117.433 254.216 136.013 260.416C143.883 263.042 157.538 261.47 165.41 257.89C189.852 246.773 188.779 213.049 189.322 152.677C189.543 127.969 183.634 87.1281 187.229 60.5459C189.745 41.9451 211.466 25.9348 227.97 17.6269C244.483 9.31434 263.132 18.6189 272.926 24.7878C295.615 39.0795 304.446 68.0943 343.095 136.697C360.125 166.926 398.294 183.847 456.158 191.721C479.847 194.944 495.581 184.002 504.353 176.283C521.904 160.837 526.544 124.266 536.4 96.242C551.839 52.3422 617.106 18.8669 654.143 2.12705C658.515 0.151218 662.914 1.07306 666.044 2.60755C680.797 9.83932 700.044 55.5085 714.1 105.278C719.646 124.917 727.008 138.464 734.741 145.175C752.595 160.671 801.268 145.779 820.995 137.503C864.863 119.097 923.258 91.0341 939.297 76.0457C953.879 62.4186 996.402 53.8345 1025.54 54.7645C1059.97 55.8638 1061.74 87.8101 1070.01 108.952C1076.73 126.129 1076.24 176.345 1078.29 238.313C1079.05 261.486 1084.42 267.546 1088.58 272.754C1114.77 305.605 1176.35 324.461 1190.36 334.273C1209.61 347.755 1200.21 397.621 1182.24 435.456C1162.07 477.9 1087.03 482.498 1047.4 488.791C1033.85 490.943 1023.58 496.014 1018.42 501.16C1004.24 515.302 1016.3 545.551 1024.03 559.02C1033.71 575.878 1063.72 585.851 1107.57 602.404C1127.06 609.759 1138.2 616.912 1144.38 622.058C1159.8 634.895 1161.97 657.15 1160.98 714.856C1160.55 739.453 1147.56 752.257 1141.37 759.991C1135.67 767.119 1126.91 772.934 1086.95 779.629C1052.39 785.419 987.662 787.348 951.399 789.968C908.955 793.034 899.61 795.687 892.404 800.818C869.641 817.025 860.403 841.04 846.425 856.617C828.752 876.313 791.226 883.509 763.828 884.052C750.847 884.309 740.521 878.394 733.811 872.21C730.819 869.452 730.17 866.026 729.131 829.151C728.093 792.277 727.07 721.691 725.52 678.679C723.489 622.29 717.772 604.574 711.093 596.84C702.224 586.57 672.491 586.967 641.513 587.99C629.929 588.372 626.9 591.059 622.251 598.762C610.052 618.976 601.052 663.133 593.319 714.22C588.177 748.192 576.288 776.933 561.861 806.847C549.779 831.898 529.829 846.279 512.287 854.54C501.3 859.714 482.347 859.764 455.027 853.626C440.999 850.474 430.775 835.212 423.956 823.773C411.969 803.663 412.984 751.668 408.382 691.218C406.783 670.217 394.574 670.666 385.741 671.177C354.715 672.974 322.298 701.479 299.905 725.365C289.604 736.352 282.875 771.663 240.15 846.046C217.809 884.944 181.651 892.809 166.185 895.909C152.986 898.555 141.328 895.94 132.557 892.856C113.385 886.114 104.168 808.614 100.975 753.466C99.3201 724.873 113.342 702.781 122.128 689.312C135.644 668.593 179.357 660.374 205.763 648.501C211.186 646.063 212.52 640.782 213.574 635.605C215.84 624.47 211.559 608.759 204.353 592.252C198.159 578.061 181.651 568.429 155.446 551.456C76.6186 500.402 51.4789 489.876 35.9668 482.11C24.7094 476.475 13.2023 477.445 8.55327 471.803C0.350437 461.848 7.99539 447.499 14.1476 439.78C35.7766 412.643 63.6903 414.422 90.546 414.391C123.217 414.354 158.654 449.39 197.969 466.037C204.792 468.926 208.367 465.076 211.993 456.35C221.693 433.007 224.948 402.147 220.873 368.171C218.454 348.011 204.524 323.965 168.045 294.438C131.566 264.911 70.1989 231.153 37.563 212.227C4.92706 193.302 2.8815 190.233 1.82773 177.911C-1.05406 144.212 3.84229 115.834 12.5824 104.488C17.2816 98.3877 26.4364 95.188 35.7654 96.6605C56.8809 99.9934 75.0648 117.787 99.751 129.629C135.685 146.866 162.931 156.04 183.96 167.851C230.558 190.915 266.231 207.717 276.025 212.863C280.705 215.963 284.796 220.055 289.011 224.271" stroke="#7F970D" stroke-width="2" stroke-linecap="round"/>
</svg>
