<svg width="16" height="16" viewBox="0 0 16 16" fill="none" xmlns="http://www.w3.org/2000/svg">
<path d="M8.99977 12.5C8.99977 12.5 11.6778 12.822 13.2078 11.292C14.7378 9.76204 14.9998 6.99997 14.4998 6.50004C13.9997 6.00011 11.3898 6.05304 9.99977 7.50004C9.56477 7.95304 8.99977 8.50004 8.99977 10V12.5ZM8.99977 12.5C8.99977 12.5 5.49977 13 3.08777 10.588C0.675766 8.17604 0.99979 3.99997 1.49977 3.50004C1.99974 3.00011 5.15177 3.15204 7.55877 5.55904C8.52577 6.52604 8.99977 8.00004 8.99977 9.70604V12.5ZM11.4998 10L8.99977 12M4.99977 8.00004C5.5 8.5 8.78177 11.972 8.78177 11.972" stroke="#515F08"/>
<circle cx="4.75" cy="7.75" r="0.75" fill="#515F08"/>
<circle cx="11.75" cy="9.75" r="0.75" fill="#515F08"/>
</svg>
