<svg width="9582" height="754" viewBox="0 0 9582 754" fill="none" xmlns="http://www.w3.org/2000/svg">
<path d="M10 407.86C144.898 406.211 423.407 383.063 672.848 344.666C742.943 333.876 795.803 311.319 880.603 277.322C1009.74 225.55 1150.77 154.883 1313.24 97.4626C1432.47 55.3232 1546.76 34.6431 1701.18 21.3193C1956.99 -0.751357 2162.81 14.5448 2247.61 24.469C2535.84 58.2014 2738.3 124.385 2848.79 138.684C2961.67 153.292 3103.94 161.182 3503.53 159.582C3702.96 158.784 3765.21 131.285 3852.79 122.085C3958.69 110.961 4090.59 116.186 4210.69 132.81C4268.57 140.821 4321.03 157.782 4452.85 230.526C4563.7 291.701 4728.42 408.86 4827.72 472.48C4941.4 545.318 5056.51 579.245 5223.93 625.016C5355.46 660.977 5522.19 677.737 5704.48 692.736C6019 718.613 6148.61 667.938 6218.84 656.214C6377.18 629.78 6589.06 577.946 6701.87 552.123C6843.53 519.698 6979.63 496.353 7234.55 452.182C7343.56 433.295 7499.99 431.208 7670.04 432.008C7900.21 433.091 8150.45 522.55 8304.2 554.423C8477.6 590.369 8691.54 587.845 8812.62 572.921C8859.46 567.148 9016.77 510.002 9261.85 431.733C9363.18 401.311 9417.71 389.762 9453.23 382.163C9488.76 374.563 9503.63 371.264 9549 362.864" stroke="#7F970D" stroke-width="20" stroke-linecap="round"/>
<path d="M393 736.688C433.32 736.688 504.492 739.09 646.377 742.728C867.685 748.403 1145.04 734.36 1394.14 715.003C1675.02 693.177 1781.92 660.499 1947.7 602.921C2047.18 568.372 2067.82 540.248 2115.86 510.777C2234.21 438.158 2296.92 375.39 2334.87 346.991C2386.74 308.182 2469.96 279.553 2540.75 249.39C2670.02 194.31 2836.2 159.447 2925.09 148.55C3006.11 138.618 3191.6 136.343 3448.26 138.144C3650.67 139.564 3833.52 149.66 4036.57 153.298C4259.22 157.288 4449.78 150.933 4609.61 139.472C4812.79 124.902 4969.21 98.8304 5060.77 84.2948C5180.5 65.2884 5467.26 78.0548 5775.7 101.086C5902.38 110.546 6048.24 136.197 6333.08 194.34C6467 221.676 6608.14 233.271 6821.74 243.659C6916.12 248.25 7074.27 243.095 7227.84 234.072C7537.31 215.888 7693.28 188.518 7728.79 183.679C7772.12 177.775 7880.99 165.56 8066.17 142.583C8479.02 91.3577 8640.05 75.7262 8741.77 67.2486C8852.69 58.0037 9006.29 51.4941 9128.55 46C9337.26 48.9835 9464.94 57.4975 9495.41 59.9171C9510.76 61.136 9525.88 62.3367 9572 63.5738" stroke="#7F970D" stroke-width="20" stroke-linecap="round"/>
<path d="M393 686.198C556.735 672.549 665.162 660.553 708.868 650.551C750.461 641.032 801.17 614.339 876.471 572.449C948.589 532.33 966.802 505.76 1010.44 496.059C1083.59 479.794 1335.42 483.142 1491.79 487.805C1618.38 491.58 1710.76 516.233 1836.7 558.922C1924.66 588.736 2020.43 636.976 2094.27 665.93C2191.98 704.244 2294.49 718.725 2384.31 729.056C2450.36 736.654 2528.12 738.203 2612.91 740.704C2729.96 744.156 2930.89 744.483 3149.57 743.552C3440.16 742.316 3608.16 701.898 3692.73 686.029C3759.9 673.425 3868.79 650.927 3976.42 631.975C4084.04 613.023 4185.17 598.132 4278.2 586.118C4445.94 564.456 4580.79 552.745 4672.95 545.554C4770.33 537.955 4891.92 535.786 5013.26 537.958C5073.79 539.041 5124.97 544.473 5222.09 555.396C5319.21 566.32 5458.86 583.693 5617.49 605.982C5776.12 628.271 5949.48 654.95 6055.65 670.556C6236.54 697.145 6327.15 701.841 6467.9 704.68C6592.14 707.186 6701.76 703.759 6767.28 700.638C6889.79 694.803 6949.7 676.873 7039.88 650.259C7064.88 642.883 7153.71 618.118 7342.69 565.963C7449.61 536.454 7599.09 502.019 7685.56 481.948C7839.18 446.289 8005.36 437.417 8134.08 433.017C8282.67 427.938 8413.39 442.343 8654.25 465.807C8766.64 476.756 8837.17 493.709 8955.74 531.688C9035.79 560.98 9156.18 610.616 9223.02 644.562C9289.85 678.509 9299.48 695.261 9324 712.52" stroke="#7F970D" stroke-width="4" stroke-linecap="round"/>
<path d="M235 238.912C341.087 240.243 617.556 242.259 965.7 244.609C1116.45 245.626 1198.84 249.64 1363.67 260.993C1642.12 280.172 1836.97 302.736 1936.63 308.775C2101.41 318.761 2284.85 316.872 2584.04 315.218C2742.56 314.342 2806.51 304.813 2978.87 287.722C3101.36 275.577 3220.49 269.866 3341.55 259.501C3563.18 240.527 3761.01 228.849 3846.12 224.826C3953.97 219.729 4096.51 214.754 4449.4 213.03C4634.26 212.126 4826.84 232.056 4952.15 248.279C5023.91 257.57 5153.58 286.422 5280.86 324.827C5347.76 345.014 5392.93 365.833 5434.51 380.03C5470.08 392.179 5539.06 404.228 5607.23 416.983C5658.11 426.504 5820.64 442.462 6017.77 461.276C6187.07 477.436 6376.36 483.559 6556.68 490.284C6714.68 496.177 6988.92 497.03 7156.16 495.023C7234.59 494.082 7307.18 485.616 7365.7 480.585C7451.93 473.171 7550.33 451.415 7672.27 431.573C7812.13 408.815 7910.97 406.325 8027.79 400.931C8222.41 391.945 8320.12 390.838 8529.22 389.487C8608.64 388.974 8656.5 384.123 8692.96 379.768C8769.24 370.654 8792.98 356.597 8882.77 334.789C8958.86 316.308 9108.61 302.877 9219.01 295.053C9236.18 294.044 9250.64 292.713 9267.74 292.028C9284.84 291.342 9304.13 291.342 9324 291.342" stroke="#515F08" stroke-width="20" stroke-linecap="round"/>
</svg>
